<svg width="43" height="43" viewBox="0 0 43 43" fill="none" xmlns="http://www.w3.org/2000/svg">
<path d="M32.3862 24.7599C32.1887 24.5582 32.1024 24.2694 32.1546 23.9897C32.3816 22.6785 32.3816 21.3399 32.1546 20.0287C32.1024 19.749 32.1887 19.4602 32.3862 19.2585L33.7482 17.8831C33.9843 17.6424 34.0592 17.2825 33.9389 16.9662C33.4236 15.6183 32.704 14.3599 31.8051 13.2344C31.5894 12.9593 31.2308 12.8424 30.8971 12.9409L29.0357 13.4407C28.761 13.5094 28.4728 13.4338 28.2639 13.2435C27.2538 12.3862 26.1029 11.7169 24.8635 11.263C24.5956 11.1667 24.3913 10.9467 24.3142 10.6716L23.8148 8.79198C23.733 8.46647 23.4697 8.22349 23.1429 8.16848C21.7106 7.94384 20.2532 7.94384 18.8208 8.16848C18.494 8.22349 18.2307 8.46647 18.149 8.79198L17.6496 10.6716C17.5724 10.9467 17.3681 11.1667 17.1002 11.263C15.8722 11.7192 14.7349 12.3908 13.7361 13.2435C13.5227 13.4292 13.2322 13.4957 12.9598 13.4223L11.0984 12.9226C10.7647 12.824 10.4061 12.9409 10.1904 13.216C9.28925 14.3461 8.56965 15.6114 8.05665 16.9661C7.93634 17.2825 8.01125 17.6423 8.24733 17.8831L9.60934 19.2584C9.80683 19.4602 9.89309 19.749 9.84088 20.0286C9.61389 21.3398 9.61389 22.6785 9.84088 23.9897C9.89536 24.2693 9.8091 24.5559 9.61389 24.7599L8.25187 26.1353C8.01579 26.3759 7.94088 26.7358 8.0612 27.0522C8.57648 28.4 9.29606 29.6585 10.195 30.784C10.4106 31.059 10.7693 31.176 11.103 31.0774L12.9643 30.5777C13.2367 30.5043 13.5273 30.5708 13.7407 30.7565C14.7508 31.6138 15.9017 32.2831 17.1411 32.737C17.409 32.8333 17.6133 33.0533 17.6904 33.3284L18.1898 35.208C18.2715 35.5335 18.5349 35.7765 18.8617 35.8315C20.294 36.0562 21.7514 36.0562 23.1837 35.8315C23.5106 35.7765 23.7739 35.5335 23.8556 35.208L24.355 33.3284C24.4322 33.0533 24.6365 32.8333 24.9044 32.737C26.1279 32.2854 27.2651 31.6207 28.2639 30.7748C28.4773 30.5891 28.7678 30.5226 29.0402 30.596L30.9016 31.0957C31.2353 31.1943 31.5939 31.0774 31.8096 30.8023C32.7108 29.6722 33.4303 28.4069 33.9434 27.0522C34.0637 26.7358 33.9888 26.376 33.7527 26.1353L32.3862 24.7599ZM24.7457 25.7914C23.2316 27.3227 20.9526 27.7811 18.9709 26.9513C16.9915 26.1238 15.6998 24.1731 15.6998 22.0092C15.6998 19.8453 16.9915 17.8946 18.9709 17.0671C20.9526 16.2372 23.2316 16.6957 24.7457 18.227C25.7399 19.2287 26.2984 20.5903 26.2984 22.0092C26.2984 23.4281 25.74 24.7897 24.7457 25.7914Z" fill="#272C39"/>
<path d="M0.653609 21.9999C0.479934 22.0023 0.313122 21.935 0.189723 21.8096C0.0663236 21.6866 -0.00222631 21.5172 5.51824e-05 21.3408C0.130311 15.33 2.69426 9.64171 7.09081 5.61466C11.4874 1.58761 17.3236 -0.417001 23.2239 0.072507C29.1242 0.562205 34.5629 3.50269 38.2577 8.20028V5.74484C38.2577 5.3851 38.5434 5.09497 38.8976 5.09497H40.3601C40.7143 5.09497 41 5.38507 41 5.74484V12.5215C41.0023 12.8256 40.7943 13.0925 40.5018 13.1574L38.8794 13.5288C38.5915 13.5914 38.3012 13.4475 38.171 13.1807C35.6299 8.11428 30.9913 4.46825 25.5251 3.23839C20.0589 2.00853 14.337 3.32659 9.92907 6.83107C5.51871 10.3332 2.88394 15.6569 2.74237 21.341C2.74009 21.6938 2.45901 21.9816 2.11169 21.9862L0.653609 21.9999Z" fill="#272C39"/>
<path d="M21.591 43C15.0426 42.9837 8.85287 39.9662 4.74196 34.7879V37.2437C4.74196 37.6034 4.45634 37.8936 4.10215 37.8936H2.63982C2.28566 37.8936 2.00002 37.6035 2.00002 37.2437V30.466C1.99773 30.1619 2.20566 29.895 2.49813 29.83L4.12038 29.4586C4.40828 29.396 4.69846 29.5399 4.82868 29.8068C7.36717 34.8762 12.0076 38.5276 17.4732 39.7576C22.941 40.9901 28.6647 39.6717 33.0746 36.1644C37.4844 32.6595 40.1212 27.3325 40.2581 21.6453C40.2604 21.2925 40.5415 21.0046 40.8887 21H42.3511C42.7052 20.9977 42.9954 21.2855 43 21.6453C42.8743 26.4918 41.1744 31.1599 38.1652 34.9225C35.1537 38.6851 31.0021 41.3288 26.3565 42.4429C24.7936 42.812 23.1943 42.9977 21.5903 43L21.591 43Z" fill="#272C39"/>
</svg>
