<svg width="44" height="44" viewBox="0 0 44 44" fill="none" xmlns="http://www.w3.org/2000/svg">
<path d="M8.00777 31.7498C7.55147 31.7498 7.11759 31.867 6.71367 32.0701C6.14515 31.242 5.63648 30.3592 5.21758 29.4373C4.92584 28.8201 4.67899 28.1951 4.46207 27.531C4.32742 27.1248 3.90103 26.906 3.51204 27.0388C3.11558 27.1794 2.90614 27.6248 3.04077 28.031C3.28015 28.7576 3.55691 29.4608 3.87111 30.117C4.34238 31.1561 4.91837 32.1405 5.56918 33.078C5.21012 33.6015 5.01565 34.2186 5.01565 34.8749C5.01565 35.7109 5.32983 36.4922 5.89085 37.0859C6.45937 37.6719 7.20741 38 8.00783 38C8.80825 38 9.55629 37.6719 10.1248 37.0859C10.6858 36.4922 11 35.7109 11 34.8749C11 34.039 10.6858 33.2577 10.1248 32.664C9.55629 32.078 8.80819 31.7498 8.00777 31.7498Z" fill="#444444"/>
<path d="M6 21.8935C6 20.5421 5.15252 19.4005 3.99002 18.9733C4.14752 17.9481 4.38752 16.9541 4.7175 16.0143C4.935 15.3542 5.1825 14.7329 5.47498 14.1193C5.65498 13.7388 5.50498 13.2728 5.12999 13.0786C4.76249 12.8922 4.31251 13.0475 4.12497 13.4359C3.80998 14.096 3.53247 14.795 3.29996 15.5017C2.93247 16.5579 2.66997 17.6763 2.48997 18.8413C1.07999 19.0898 0 20.3635 0 21.8934C0 23.6098 1.3425 25 2.99996 25C4.65743 25 6 23.6098 6 21.8935Z" fill="#444444"/>
<path d="M22.1066 6C23.458 6 24.5996 5.15252 25.0267 3.99002C26.0519 4.14752 27.046 4.38752 27.9857 4.7175C28.6537 4.935 29.2672 5.1825 29.8807 5.47498C29.9894 5.52748 30.1059 5.54998 30.2224 5.54998C30.5098 5.54998 30.7816 5.39998 30.9214 5.12999C31.1078 4.76249 30.9525 4.31251 30.5641 4.12497C29.8962 3.80998 29.2128 3.53247 28.4983 3.29996C27.4421 2.93247 26.3237 2.66997 25.1587 2.48997C24.9102 1.07999 23.6365 0 22.1066 0C20.3902 0 19 1.3425 19 2.99996C19 4.65743 20.3902 6 22.1066 6Z" fill="#444444"/>
<path d="M34.8759 32.0001C34.0403 32.0001 33.2593 32.3144 32.6657 32.8756C32.08 33.4444 31.752 34.1927 31.752 34.9935C31.752 35.45 31.8691 35.8841 32.0722 36.2881C31.2443 36.8569 30.3618 37.3658 29.4402 37.7849C28.8232 38.0767 28.2062 38.3237 27.5346 38.5407C27.1207 38.6754 26.902 39.102 27.0426 39.4911C27.1519 39.8054 27.4565 40 27.7845 40C27.8704 40 27.9563 39.985 28.0344 39.9626C28.7686 39.7231 29.4559 39.4462 30.1197 39.1319C31.1584 38.6529 32.1503 38.0842 33.0797 37.4331C33.603 37.7923 34.2199 37.9869 34.876 37.9869C35.7117 37.9869 36.4927 37.6726 37.0862 37.1113C37.672 36.5425 38 35.7942 38 34.9934C38 34.1927 37.672 33.4443 37.0862 32.8756C36.4927 32.3143 35.7116 32.0001 34.8759 32.0001Z" fill="#444444"/>
<path d="M41 19C39.3425 19 38 20.3903 38 22.1068C38 23.4583 38.8475 24.6 40.01 25.0272C39.8525 26.0524 39.6125 27.0466 39.2825 27.9864C39.065 28.6466 38.8175 29.2679 38.525 29.8815C38.345 30.2621 38.495 30.7281 38.87 30.9223C38.975 30.9767 39.0875 31 39.2 31C39.4775 31 39.74 30.8447 39.875 30.565C40.19 29.9049 40.4675 29.2058 40.7 28.4991C41.0675 27.4427 41.33 26.3243 41.51 25.1592C42.92 24.9107 44 23.6369 44 22.1068C44 20.3903 42.6575 19 41 19Z" fill="#444444"/>
<path d="M21.8935 38C20.5421 38 19.4005 38.8475 18.9733 40.01C17.9481 39.8525 16.9541 39.6125 16.0143 39.2825C15.3464 39.065 14.7329 38.8175 14.1193 38.525C13.7388 38.345 13.2728 38.495 13.0786 38.87C12.8922 39.2375 13.0475 39.6875 13.4359 39.875C14.1038 40.19 14.7872 40.4675 15.5017 40.7C16.5579 41.0675 17.6763 41.33 18.8413 41.51C19.0898 42.92 20.3635 44 21.8934 44C23.6098 44 25 42.6575 25 41C25 39.3426 23.6098 38 21.8935 38Z" fill="#444444"/>
<path d="M14.5598 5.21758C15.1768 4.92584 15.7938 4.67899 16.4654 4.46207C16.8793 4.32742 17.098 3.90103 16.9574 3.51204C16.8169 3.11558 16.3717 2.90614 15.9656 3.04077C15.2314 3.28015 14.5441 3.55691 13.8803 3.87111C12.8416 4.34986 11.8497 4.91837 10.9203 5.56918C10.397 5.21012 9.78007 5.01566 9.12398 5.01566C8.2883 5.01566 7.50731 5.32983 6.91375 5.89085C6.32799 6.45937 6 7.20741 6 8.00783C6 8.80825 6.32802 9.55629 6.91375 10.1248C7.50731 10.6858 8.2883 11 9.12398 11C9.95966 11 10.7407 10.6858 11.3342 10.1248C11.92 9.55629 12.248 8.80825 12.248 8.00783C12.248 7.55152 12.1308 7.11764 11.9278 6.71372C12.7556 6.14521 13.6382 5.63649 14.5598 5.21758Z" fill="#444444"/>
<path d="M34.9922 12.25C35.4485 12.25 35.8824 12.1328 36.2863 11.9297C36.8548 12.7578 37.3635 13.6407 37.7824 14.5625C38.0742 15.1797 38.321 15.8047 38.5379 16.4688C38.6501 16.7969 38.9344 17 39.2486 17C39.3309 17 39.4132 16.9844 39.488 16.9609C39.8844 16.8203 40.0939 16.375 39.9592 15.9687C39.7199 15.2422 39.4431 14.5391 39.1289 13.8828C38.6576 12.8438 38.0816 11.8594 37.4308 10.9219C37.7899 10.3984 37.9843 9.78128 37.9843 9.12498C37.9843 8.28904 37.6702 7.50779 37.1091 6.91404C36.5406 6.3281 35.7926 6 34.9922 6C34.1918 6 33.4437 6.32812 32.8752 6.91404C32.3142 7.50779 32 8.28904 32 9.12498C32 9.96093 32.3142 10.7422 32.8752 11.3359C33.4437 11.9219 34.1918 12.25 34.9922 12.25Z" fill="#444444"/>
<path d="M18.0001 29.2417C18.0001 31.8667 20.0176 34 22.5001 34C24.9825 34 27 31.8667 27 29.2417V29H18L18.0001 29.2417Z" fill="#444444"/>
<path d="M30 18.5001C30 13.8097 26.1906 10 21.5 10C16.8094 10 13 13.8095 13 18.5001C13 20.9496 14.0586 23.2754 15.8977 24.8905C16.5004 25.4159 16.8944 26.1655 17.0258 27H25.9738C26.1052 26.1655 26.4993 25.4159 27.1019 24.8905C28.941 23.2755 30 20.9496 30 18.5001ZM25.4333 18.2451C25.3638 18.2606 25.3019 18.2683 25.2324 18.2683C24.8924 18.2683 24.5756 18.0442 24.4829 17.6965C24.2047 16.6302 23.3702 15.7956 22.3039 15.5175C21.8944 15.4016 21.6471 14.9843 21.7553 14.567C21.8712 14.1575 22.2884 13.9102 22.7057 14.0184C24.2975 14.4511 25.5492 15.7029 25.982 17.2947C26.0901 17.712 25.8428 18.1292 25.4333 18.2451Z" fill="#444444"/>
</svg>
