<svg width="90" height="32" viewBox="0 0 90 32" fill="none" xmlns="http://www.w3.org/2000/svg">
<circle cx="16" cy="16" r="16" fill="#F05C1F"/>
<path d="M51.9558 22.5H40.9758V9.1H43.9758V19.8H51.9558V22.5ZM58.5033 22.7C55.0833 22.7 52.7833 20.66 52.7833 17.5C52.7833 14.3 55.0833 12.28 58.5033 12.28C61.9233 12.28 64.2233 14.3 64.2233 17.5C64.2233 20.66 61.9233 22.7 58.5033 22.7ZM58.5033 20.04C60.5233 20.04 61.2433 19.26 61.2433 17.5C61.2433 15.74 60.5233 14.92 58.5033 14.92C56.4633 14.92 55.7633 15.74 55.7633 17.5C55.7633 19.26 56.4633 20.04 58.5033 20.04ZM69.8484 21.48C66.8684 21.48 65.1484 19.7 65.1484 16.88C65.1484 14.08 66.9684 12.28 69.9684 12.28C72.0084 12.28 73.4684 13.16 73.7884 14.9H73.9484V12.48H76.7484V21.04C76.7484 24.54 74.6284 26.1 71.0484 26.1C67.8084 26.1 65.7684 24.66 65.7684 22.14H68.7684C68.7684 23.26 69.2084 23.6 71.2484 23.6C73.1684 23.6 73.7484 23.2 73.7484 21.24V18.98H73.5884C73.2684 20.46 72.0884 21.48 69.8484 21.48ZM68.1684 16.88C68.1684 18.36 69.0084 18.9 70.8884 18.9C72.8084 18.9 73.7484 18.36 73.7484 16.98V16.76C73.7484 15.4 72.7884 14.88 70.9284 14.88C69.0084 14.88 68.1684 15.4 68.1684 16.88ZM83.6791 22.7C80.2591 22.7 77.9591 20.66 77.9591 17.5C77.9591 14.3 80.2591 12.28 83.6791 12.28C87.0991 12.28 89.3991 14.3 89.3991 17.5C89.3991 20.66 87.0991 22.7 83.6791 22.7ZM83.6791 20.04C85.6991 20.04 86.4191 19.26 86.4191 17.5C86.4191 15.74 85.6991 14.92 83.6791 14.92C81.6391 14.92 80.9391 15.74 80.9391 17.5C80.9391 19.26 81.6391 20.04 83.6791 20.04Z" fill="#F05C1F"/>
</svg>
