<svg width="450" height="142" viewBox="0 0 450 142" fill="none" xmlns="http://www.w3.org/2000/svg">
<path d="M25.1193 247.058C25.1193 247.058 42.7063 166.304 95.73 135.931C148.754 105.558 155.204 147.506 215.619 128.153C276.034 108.8 268.386 73.0891 314.275 56.3869C360.164 39.6848 385.294 103.837 433.257 81.6335C481.22 59.4302 462.84 2.3138 462.84 2.3138" stroke="#E1E6DF" stroke-width="10"/>
<path d="M31.1193 283.058C31.1193 283.058 48.7063 202.304 101.73 171.931C154.754 141.558 161.204 183.506 221.619 164.153C282.034 144.8 274.386 109.089 320.275 92.3869C366.164 75.6848 391.294 139.837 439.257 117.633C487.22 95.4302 468.84 38.3138 468.84 38.3138" stroke="#E1E6DF" stroke-width="10"/>
</svg>
