<svg width="1312" height="248" viewBox="0 0 1312 248" fill="none" xmlns="http://www.w3.org/2000/svg">
<path fill-rule="evenodd" clip-rule="evenodd" d="M1331.87 0.734043C1333.2 0.734043 1335.26 0.517054 1336.24 0.191569C1337.33 -0.079668 1338.54 -0.079668 1339.51 0.300064C1340.48 0.625549 1341.46 0.734043 1341.94 0.571301C1342.31 0.408559 1344.37 0.625549 1346.43 1.11378C1348.5 1.65625 1350.56 1.98173 1351.17 1.92749C1352.5 1.76474 1352.26 2.79545 1350.8 3.17518C1349.47 3.55491 1349.83 5.01959 1353.47 13.211C1355.54 17.9305 1355.78 20.2631 1355.29 27.3153C1354.93 33.391 1355.17 36.3203 1356.26 37.8935C1358.45 40.8771 1360.63 48.2005 1360.39 51.7809C1360.27 56.0122 1361.61 61.1657 1363.43 63.2271C1364.28 64.2035 1365.49 66.9701 1365.85 69.3028C1366.34 71.6897 1367.07 73.8596 1367.55 74.185C1368.89 75.1615 1369.13 80.8575 1368.65 99.3559C1368.52 106.354 1368.65 112.104 1369.01 112.212C1369.37 112.321 1369.86 116.39 1369.98 121.272C1370.22 127.456 1370.83 131.036 1372.29 133.098C1373.38 134.888 1374.11 137.817 1373.99 140.421C1373.5 153.224 1372.65 160.872 1371.68 161.74C1371.07 162.229 1370.47 165.809 1370.35 169.606C1370.22 174.489 1369.62 177.147 1368.28 178.557C1367.31 179.642 1364.76 183.331 1362.82 186.748C1360.88 190.166 1358.69 193.367 1358.09 193.909C1357.36 194.397 1356.99 195.808 1356.99 196.947C1357.11 198.086 1356.51 200.039 1355.78 201.341C1354.93 202.643 1354.44 204.216 1354.57 204.867C1355.29 208.013 1352.87 215.879 1350.68 217.29C1349.35 218.049 1348.37 219.351 1348.37 220.165C1348.37 223.474 1344.25 225.101 1326.16 229.17C1311.35 232.479 1307.59 233.076 1299.58 233.51C1290.84 233.944 1289.02 233.889 1276.51 232.316C1268.99 231.394 1261.46 230.309 1259.76 229.929C1258.06 229.55 1254.79 228.899 1252.48 228.573C1250.17 228.193 1246.53 227.543 1244.47 227.163C1242.4 226.729 1239.61 226.349 1238.4 226.241C1237.06 226.186 1235.61 225.969 1234.88 225.807C1234.27 225.59 1231.6 225.156 1229.17 224.83C1226.62 224.45 1224.56 223.962 1224.56 223.691C1224.56 223.04 1218.01 223.962 1213.15 225.264C1210.96 225.915 1207.2 226.403 1205.02 226.403C1202.71 226.403 1198.95 226.675 1196.64 227C1192.88 227.543 1152.94 228.736 1142.02 228.627C1117.01 228.465 1104.39 228.085 1101.35 227.543C1096.01 226.512 1083.39 225.698 1072.22 225.59C1066.88 225.59 1059.72 225.373 1056.2 225.101C1050.61 224.722 1049.16 224.884 1042.24 226.349C1038.11 227.271 1033.25 228.031 1031.56 228.031C1029.86 228.031 1025 228.79 1020.63 229.712C1014.56 231.014 1010.43 231.448 1003.03 231.665C993.926 231.991 992.105 232.262 972.562 236.548C953.868 240.616 951.198 241.05 945.25 240.996C935.539 240.887 928.862 240.128 923.279 238.446C917.088 236.656 909.319 234.649 900.458 232.696C898.349 232.193 896.118 231.691 894.402 231.304C893.154 231.023 892.178 230.803 891.718 230.689C890.504 230.418 888.805 230.201 887.834 230.201C886.984 230.201 885.527 229.875 884.799 229.441C884.071 229.061 882.129 228.844 880.551 228.953C877.395 229.224 866.713 227.434 851.661 224.179C850.447 223.908 846.805 223.691 843.406 223.691C840.129 223.691 835.031 223.365 832.239 222.986C820.221 221.25 812.21 220.924 805.534 221.738C801.164 222.226 794.488 222.443 785.141 222.389C772.759 222.226 770.453 222.064 764.505 220.707C755.158 218.592 753.823 218.537 733.552 218.646C718.121 218.723 703.426 219.183 692.334 219.871C691.58 221.936 690.61 223.692 689.685 224.29C688.35 225.049 687.378 226.351 687.378 227.165C687.378 230.474 683.251 232.101 665.165 236.17C650.356 239.479 646.593 240.076 638.581 240.51C629.841 240.944 628.02 240.889 615.518 239.316C607.992 238.394 600.466 237.309 598.766 236.929C597.067 236.55 593.789 235.899 591.483 235.573C589.177 235.193 585.535 234.543 583.472 234.163C581.408 233.729 578.616 233.349 577.402 233.241C576.067 233.186 574.61 232.969 573.882 232.807C573.275 232.59 570.605 232.156 568.177 231.83C565.628 231.45 563.564 230.962 563.564 230.691C563.564 230.04 557.009 230.962 552.154 232.264C549.969 232.915 546.206 233.403 544.021 233.403C541.715 233.403 537.952 233.675 535.645 234C531.882 234.543 491.946 235.736 481.021 235.627C456.016 235.465 443.391 235.085 440.357 234.543C435.016 233.512 422.392 232.698 411.224 232.59C405.883 232.59 398.721 232.373 395.201 232.101C389.617 231.722 388.161 231.884 381.242 233.349C377.114 234.271 372.259 235.031 370.56 235.031C368.86 235.031 364.005 235.79 359.635 236.712C353.565 238.014 349.438 238.448 342.034 238.665C332.93 238.991 331.109 239.262 311.566 243.548C292.872 247.616 290.202 248.05 284.254 247.996C274.543 247.887 267.867 247.128 262.283 245.446C256.092 243.656 248.323 241.649 239.462 239.696C237.353 239.193 235.122 238.691 233.406 238.304C232.158 238.023 231.182 237.803 230.722 237.689C229.508 237.418 227.809 237.201 226.838 237.201C225.988 237.201 224.532 236.875 223.803 236.441C223.075 236.061 221.133 235.844 219.555 235.953C216.399 236.224 205.717 234.434 190.665 231.179C189.451 230.908 185.809 230.691 182.41 230.691C179.133 230.691 174.035 230.365 171.243 229.986C159.226 228.25 151.214 227.924 144.538 228.738C140.168 229.226 133.492 229.443 124.145 229.389C111.763 229.226 109.457 229.064 103.509 227.707C94.1624 225.592 92.8271 225.537 72.5556 225.646C50.8274 225.754 30.5558 226.622 19.7524 227.816C15.3825 228.25 8.46346 228.847 4.33631 229.118C0.209167 229.335 -4.76768 229.932 -6.70987 230.365C-11.9295 231.559 -18.9699 230.365 -21.0335 227.924C-22.7329 225.754 -23.5826 224.615 -23.8254 224.019C-24.0681 223.042 -30.1375 218.214 -31.1086 218.214C-33.7791 218.214 -36.3282 215.285 -36.2068 212.084V204.923C-36.2068 197.003 -36.8137 191.796 -38.3918 187.89C-39.2415 185.72 -39.6056 182.845 -39.1201 181.597C-38.6345 179.807 -38.9987 178.776 -40.9409 177.203C-42.2761 176.01 -43.3686 174.816 -43.3686 174.545C-43.3686 174.219 -44.9466 172.972 -46.8888 171.778C-52.594 168.198 -53.4437 166.571 -53.6865 156.643C-54.0506 145.523 -54.9003 142.159 -58.1778 140.369C-60.1199 139.284 -60.7269 137.982 -60.9697 134.782C-61.091 132.503 -60.8483 130.225 -60.2413 129.736C-59.7558 129.248 -59.1489 127.187 -59.0275 125.125C-58.9061 123.064 -58.2991 120.948 -57.6922 120.406C-56.5997 119.429 -55.8714 116.5 -55.0217 109.665C-54.7789 107.983 -54.2934 106.356 -53.8078 106.03C-53.4437 105.705 -53.6865 104.783 -54.2934 103.969C-56.2356 101.799 -55.5073 86.664 -53.4437 84.9281C-52.594 84.1687 -51.8657 81.8903 -51.8657 79.8289C-51.8657 77.6047 -51.016 75.2178 -49.9235 74.0244C-48.1027 72.0172 -47.7385 71.2035 -46.4033 63.8801C-45.6749 60.1913 -41.912 55.8515 -37.6634 53.7359C-36.6923 53.1934 -36.0854 52.4339 -36.4496 51.9999C-36.8137 51.566 -36.8137 51.0777 -36.3282 50.915C-35.964 50.698 -35.4785 49.0163 -35.4785 47.1719C-35.3571 45.3275 -34.1432 42.1269 -32.6866 40.0655C-31.2299 38.0041 -30.0161 34.9662 -30.0161 33.1218C-30.0161 28.999 -26.3745 25.473 -17.0277 20.7534C-12.2936 18.3123 -9.38037 17.2816 -7.68096 17.3358C-6.22432 17.4443 -2.21856 17.6071 1.30165 17.7156C4.82185 17.8783 8.34206 18.1496 9.07039 18.3665C11.2553 18.9633 30.6772 19.0175 30.6772 18.4208C30.6772 18.0953 31.0414 17.9868 31.4055 18.1496C31.7697 18.3665 33.7119 18.258 35.7754 17.9868C38.0818 17.7156 41.7234 17.7698 45.0008 18.0953C48.7638 18.475 52.5268 18.4208 57.5036 17.9868C63.5729 17.4443 65.0296 17.4986 66.8504 18.1496C70.492 19.6142 77.2896 20.9704 80.2029 20.8077C82.3879 20.6992 84.937 21.5671 90.7635 24.2795C99.5034 28.4023 101.688 28.782 118.804 29.1618C133.127 29.433 143.567 30.2467 148.301 31.2774C150.243 31.7656 154.249 32.0911 157.162 32.0911C161.411 32.0369 163.11 31.6571 166.266 30.1382C169.908 28.4565 170.636 28.3481 175.977 28.565C190.058 29.216 199.769 30.0297 202.439 30.8434C204.139 31.3317 206.566 31.6029 207.902 31.4402C209.237 31.2774 210.693 31.3859 211.058 31.6571C211.422 31.9284 213 32.1454 214.699 32.1454C216.399 32.1454 221.011 32.6336 225.017 33.2303L232.3 34.3153L237.398 33.0133C240.19 32.3081 246.017 31.0604 250.387 30.2467C271.508 26.2867 287.774 22.1639 289.352 20.3194C291.173 18.1496 293.843 18.3123 301.369 20.9704C305.375 22.3266 309.017 23.4658 309.502 23.4658C309.866 23.4658 313.144 24.1168 316.664 24.8762C324.068 26.5037 331.109 26.8834 333.537 25.8527C334.386 25.4187 335.843 25.0932 336.571 25.0932C338.392 25.0932 349.924 23.4658 352.352 22.8691C353.323 22.5978 356.115 22.0011 358.421 21.5129C360.727 20.9704 364.126 20.1025 366.068 19.56C369.224 18.5293 369.346 18.5293 369.346 19.5057C369.346 20.0482 371.045 20.8077 373.351 21.2959C375.779 21.7841 377.357 22.5978 377.6 23.3031C377.964 24.3338 378.814 24.5507 382.091 24.5507C384.276 24.5507 387.068 24.171 388.161 23.6285C389.86 22.8691 390.346 22.8691 391.317 23.52C392.288 24.171 392.53 24.171 393.502 23.4658C394.473 22.8148 395.322 22.8148 398.843 23.3573C401.028 23.737 404.548 24.0083 406.49 24.0083C408.554 24.0083 412.802 24.7677 416.201 25.7442C424.455 28.0768 438.657 29.5957 440.357 28.2938C440.842 28.0226 442.178 28.0768 443.756 28.4565C445.212 28.782 446.669 28.999 447.033 28.9448C447.397 28.8905 450.675 28.999 454.316 29.216C458.929 29.433 461.964 29.9755 464.149 30.8977C466.698 31.9284 468.883 32.2539 474.224 32.3081C477.987 32.4166 481.264 32.1996 481.507 31.8741C481.75 31.6029 482.842 31.8199 483.813 32.4166C485.513 33.3931 485.877 33.4473 487.94 32.6336C489.154 32.1454 491.703 31.6029 493.767 31.3859C495.709 31.1689 499.593 30.518 502.507 29.9212C505.299 29.3788 507.969 28.8905 508.455 28.8905C508.94 28.8905 510.275 28.5108 511.247 28.0768C512.339 27.6428 518.287 27.0461 524.72 26.6664C533.339 26.1782 536.738 25.7442 538.316 24.9847C539.53 24.388 542.321 23.6828 544.749 23.4116C549.362 22.8148 551.425 21.4044 551.425 18.692C551.425 17.8241 552.761 16.6849 554.582 15.9254L557.616 14.6235L563.443 16.0339C568.42 17.2273 570.362 17.3901 576.431 17.1731C580.437 17.0104 585.778 16.7934 588.448 16.7391C597.431 16.3594 605.443 15.8169 608.234 15.2744C610.055 14.949 610.784 14.949 610.298 15.3287C609.327 15.9797 617.217 16.0881 618.916 15.4372C621.951 14.1895 632.876 12.996 641.009 12.8875C643 12.8739 644.574 12.8533 645.852 12.81C649.494 11.0449 651.854 10.2892 653.315 10.3358C653.759 10.3689 654.44 10.407 655.272 10.4471C659.729 9.1549 667.419 7.73404 670.87 7.73404C672.205 7.73404 674.269 7.51705 675.24 7.19157C676.332 6.92033 677.546 6.92033 678.517 7.30006C679.488 7.62555 680.459 7.73404 680.945 7.5713C681.309 7.40856 683.373 7.62555 685.436 8.11378C687.5 8.65625 689.563 8.98173 690.17 8.92749C691.506 8.76474 691.263 9.79545 689.806 10.1752C689.23 10.339 688.97 10.7047 689.154 11.7254C690.695 11.6558 691.673 11.5547 691.673 11.4208C691.673 11.0953 692.037 10.9868 692.401 11.1495C692.766 11.3665 694.708 11.258 696.771 10.9868C699.078 10.7156 702.719 10.7698 705.997 11.0953C709.76 11.475 713.523 11.4208 718.5 10.9868C724.569 10.4443 726.026 10.4986 727.846 11.1495C731.488 12.6142 738.286 13.9704 741.199 13.8077C743.384 13.6992 745.933 14.5671 751.76 17.2795C760.499 21.4023 762.684 21.782 779.8 22.1618C794.123 22.433 804.563 23.2467 809.297 24.2774C811.239 24.7656 815.245 25.0911 818.158 25.0911C822.406 25.0369 824.106 24.6571 827.262 23.1382C830.904 21.4565 831.632 21.3481 836.973 21.565C851.054 22.216 860.765 23.0297 863.435 23.8434C865.135 24.3317 867.562 24.6029 868.898 24.4402C870.233 24.2774 871.689 24.3859 872.054 24.6571C872.418 24.9284 873.996 25.1454 875.695 25.1454C877.395 25.1454 882.007 25.6336 886.013 26.2303L893.296 27.3153L898.394 26.0133C901.186 25.3081 907.013 24.0604 911.383 23.2467C932.504 19.2867 948.77 15.1639 950.348 13.3194C952.169 11.1495 954.839 11.3123 962.365 13.9704C966.371 15.3266 970.013 16.4658 970.498 16.4658C970.862 16.4658 974.14 17.1168 977.66 17.8762C985.064 19.5037 992.105 19.8834 994.533 18.8527C995.382 18.4187 996.839 18.0932 997.567 18.0932C999.388 18.0932 1010.92 16.4658 1013.35 15.8691C1014.32 15.5978 1017.11 15.0011 1019.42 14.5129C1021.72 13.9704 1025.12 13.1025 1027.06 12.56C1030.22 11.5293 1030.34 11.5293 1030.34 12.5057C1030.34 13.0482 1032.04 13.8077 1034.35 14.2959C1036.78 14.7841 1038.35 15.5978 1038.6 16.3031C1038.96 17.3338 1039.81 17.5507 1043.09 17.5507C1045.27 17.5507 1048.06 17.171 1049.16 16.6285C1050.86 15.8691 1051.34 15.8691 1052.31 16.52C1053.28 17.171 1053.53 17.171 1054.5 16.4658C1055.47 15.8148 1056.32 15.8148 1059.84 16.3573C1062.02 16.737 1065.54 17.0083 1067.49 17.0083C1069.55 17.0083 1073.8 17.7677 1077.2 18.7442C1085.45 21.0768 1099.65 22.5957 1101.35 21.2938C1101.84 21.0226 1103.17 21.0768 1104.75 21.4565C1106.21 21.782 1107.66 21.999 1108.03 21.9448C1108.39 21.8905 1111.67 21.999 1115.31 22.216C1119.92 22.433 1122.96 22.9755 1125.14 23.8977C1127.69 24.9284 1129.88 25.2539 1135.22 25.3081C1138.98 25.4166 1142.26 25.1996 1142.5 24.8741C1142.75 24.6029 1143.84 24.8199 1144.81 25.4166C1146.51 26.3931 1146.87 26.4473 1148.94 25.6336C1150.15 25.1454 1152.7 24.6029 1154.76 24.3859C1156.71 24.1689 1160.59 23.518 1163.5 22.9212C1166.29 22.3788 1168.97 21.8905 1169.45 21.8905C1169.94 21.8905 1171.27 21.5108 1172.24 21.0768C1173.33 20.6428 1179.28 20.0461 1185.72 19.6664C1194.33 19.1782 1197.73 18.7442 1199.31 17.9847C1200.53 17.388 1203.32 16.6828 1205.75 16.4116C1210.36 15.8148 1212.42 14.4044 1212.42 11.692C1212.42 10.8241 1213.76 9.68487 1215.58 8.9254L1218.61 7.62347L1224.44 9.0339C1229.42 10.2273 1231.36 10.3901 1237.43 10.1731C1241.43 10.0104 1246.77 9.79336 1249.44 9.73912C1258.43 9.35938 1266.44 8.81691 1269.23 8.27444C1271.05 7.94895 1271.78 7.94895 1271.29 8.32868C1270.32 8.97965 1278.21 9.08815 1279.91 8.43718C1282.95 7.18949 1293.87 5.99604 1302 5.88755C1309.89 5.8333 1311.23 5.67056 1313.54 4.42287C1316.33 3.01244 1327.5 0.734043 1331.87 0.734043Z" fill="white"/>
</svg>
