<svg width="26" height="26" viewBox="0 0 26 26" fill="none" xmlns="http://www.w3.org/2000/svg">
<path d="M0.798397 12.5908C0.833386 13.6017 1.47393 14.4913 2.4211 14.8449C3.36726 15.1996 4.43523 14.9476 5.12469 14.2085C5.81412 13.4694 5.99135 12.3866 5.57178 11.4673C5.15324 10.5469 4.22125 9.96974 3.21041 10.005C1.83108 10.0542 0.751691 11.2114 0.798397 12.5908ZM4.54596 12.4599C4.56344 12.9648 4.27525 13.4315 3.81453 13.6414C3.35482 13.8503 2.81398 13.7628 2.44349 13.4183C2.07404 13.0726 1.94924 12.5392 2.1257 12.066C2.30315 11.5919 2.7486 11.2719 3.25349 11.2543C3.94368 11.2302 4.52207 11.7697 4.54596 12.4599Z" fill="black"/>
<path d="M13.2233 24.6645C16.4036 24.5534 19.4103 23.1834 21.5824 20.8563C23.7532 18.5281 24.911 15.4332 24.8009 12.2529C24.6908 9.07253 23.3217 6.06623 20.9953 3.89476C18.6678 1.72467 15.5734 0.567803 12.3931 0.678862C9.21276 0.789922 6.2061 2.15998 4.03396 4.48706C1.86321 6.8153 0.70542 9.91012 0.815503 13.0905C0.928761 16.2696 2.29887 19.274 4.62529 21.4441C6.95172 23.6142 10.044 24.7722 13.2233 24.6645ZM19.1679 13.6042C19.1998 13.379 19.3204 13.1765 19.5022 13.0394C19.684 12.9033 19.9125 12.8449 20.1376 12.8767C20.6063 12.944 20.9312 13.3786 20.8648 13.8473C20.6257 15.4863 19.8916 17.0139 18.7618 18.2252C17.632 19.4365 16.159 20.2748 14.5405 20.6272C14.4904 20.6376 14.4403 20.6436 14.3889 20.6454C13.9456 20.6609 13.5644 20.3343 13.5095 19.8935C13.4557 19.4537 13.747 19.0447 14.1801 18.9513C15.457 18.6719 16.6177 18.0117 17.5087 17.0564C18.3997 16.1012 18.9778 14.8962 19.1679 13.6042ZM17.0914 12.5221C17.1307 13.6582 16.7176 14.7629 15.9413 15.5942C15.166 16.4264 14.0926 16.9152 12.9565 16.9549C11.8204 16.9945 10.7158 16.5818 9.88488 15.8056C9.05292 15.0306 8.56444 13.9574 8.52512 12.8212C8.48579 11.6851 8.89889 10.5804 9.67524 9.7492C10.4505 8.917 11.5239 8.42818 12.66 8.3885C13.795 8.34994 14.8997 8.76377 15.7306 9.53882C16.5614 10.3139 17.051 11.3871 17.0914 12.5221ZM6.8548 7.11826C8.11611 5.77164 9.79558 4.89177 11.6206 4.62113C12.0889 4.55224 12.5246 4.87581 12.5934 5.34404C12.6632 5.81224 12.3384 6.24813 11.8702 6.31701C10.4291 6.52708 9.10238 7.22201 8.10786 8.28701C7.1145 9.35304 6.51337 10.7249 6.40391 12.1771C6.37073 12.6124 6.01587 12.9528 5.58005 12.9681C5.54793 12.9692 5.51577 12.9692 5.4835 12.9661C5.25671 12.9493 5.04609 12.842 4.89862 12.6702C4.75005 12.4975 4.67688 12.2727 4.69475 12.0459C4.838 10.2066 5.59903 8.47016 6.8548 7.11826Z" fill="black"/>
</svg>
