<svg width="24" height="24" viewBox="0 0 24 24" fill="none" xmlns="http://www.w3.org/2000/svg">
<path d="M21.2136 12.1617H9.6133M18.7714 16.0539L22.4347 12.1617L18.7714 8.26947M12.666 5.67467V4.37727C12.666 3.68909 12.4087 3.02909 11.9507 2.54247C11.4927 2.05585 10.8715 1.78247 10.2238 1.78247H4.11843C3.47073 1.78247 2.84956 2.05585 2.39156 2.54247C1.93357 3.02909 1.67627 3.68909 1.67627 4.37727V19.9461C1.67627 20.6343 1.93357 21.2942 2.39156 21.7809C2.84956 22.2675 3.47073 22.5409 4.11843 22.5409H10.2238C10.8715 22.5409 11.4927 22.2675 11.9507 21.7809C12.4087 21.2942 12.666 20.6343 12.666 19.9461V18.6487" stroke="black" stroke-width="1.9" stroke-linecap="round" stroke-linejoin="round"/>
</svg>
