<svg width="21" height="22" viewBox="0 0 21 22" fill="none" xmlns="http://www.w3.org/2000/svg">
<rect x="0.5" y="1.2641" width="19.2891" height="19.2891" rx="5.18094" stroke="black"/>
<path d="M8.20532 13.6233L5.94305 11.3611C5.88389 11.3012 5.81344 11.2537 5.73577 11.2212C5.6581 11.1888 5.57477 11.1721 5.4906 11.1721C5.40642 11.1721 5.32309 11.1888 5.24542 11.2212C5.16775 11.2537 5.0973 11.3012 5.03814 11.3611C4.97826 11.4202 4.93072 11.4907 4.89828 11.5684C4.86583 11.646 4.84912 11.7294 4.84912 11.8135C4.84912 11.8977 4.86583 11.981 4.89828 12.0587C4.93072 12.1364 4.97826 12.2068 5.03814 12.266L7.7464 14.9742C7.99848 15.2263 8.40569 15.2263 8.65777 14.9742L15.5092 8.12927C15.5691 8.07011 15.6166 7.99966 15.6491 7.92199C15.6815 7.84432 15.6982 7.76099 15.6982 7.67681C15.6982 7.59264 15.6815 7.50931 15.6491 7.43164C15.6166 7.35397 15.5691 7.28352 15.5092 7.22436C15.4501 7.16448 15.3796 7.11694 15.3019 7.08449C15.2243 7.05205 15.1409 7.03534 15.0568 7.03534C14.9726 7.03534 14.8893 7.05205 14.8116 7.08449C14.7339 7.11694 14.6635 7.16448 14.6043 7.22436L8.20532 13.6233Z" fill="black"/>
</svg>
