<svg width="19" height="15" viewBox="0 0 19 15" fill="none" xmlns="http://www.w3.org/2000/svg">
<path d="M10.1875 6.5625V7.0625H10.6875H17.8125C18.0281 7.0625 18.2177 7.13109 18.3424 7.22953C18.4641 7.32566 18.5 7.42726 18.5 7.5C18.5 7.57274 18.4641 7.67434 18.3424 7.77047C18.2177 7.86891 18.0281 7.9375 17.8125 7.9375H10.6875H10.1875V8.4375V14.0625C10.1875 14.1352 10.1516 14.2368 10.0299 14.333C9.90517 14.4314 9.71562 14.5 9.5 14.5C9.28438 14.5 9.09483 14.4314 8.97013 14.333C8.84836 14.2368 8.8125 14.1352 8.8125 14.0625V8.4375V7.9375H8.3125H1.1875C0.971883 7.9375 0.782328 7.86891 0.657633 7.77047L0.407383 8.08745L0.657633 7.77047C0.535861 7.67434 0.5 7.57274 0.5 7.5C0.5 7.42726 0.535861 7.32566 0.657633 7.22953L0.353129 6.84382L0.657633 7.22953C0.782328 7.13109 0.971883 7.0625 1.1875 7.0625H8.3125H8.8125V6.5625V0.9375C8.8125 0.864758 8.84836 0.763165 8.97013 0.667029C9.09483 0.568586 9.28438 0.5 9.5 0.5C9.71562 0.5 9.90517 0.568586 10.0299 0.667029C10.1516 0.763165 10.1875 0.864758 10.1875 0.9375V6.5625Z" fill="#1E1E1E" stroke="#1E1E1E"/>
</svg>
